<svg xmlns="http://www.w3.org/2000/svg" xmlns:xlink="http://www.w3.org/1999/xlink" width="877.358" height="675.823" viewBox="0 0 877.358 675.823">
  <defs>
    <linearGradient id="linear-gradient" x1="0.574" y1="0.856" x2="0.568" y2="-0.071" gradientUnits="objectBoundingBox">
      <stop offset="0" stop-color="#fff0b4"/>
      <stop offset="1" stop-color="#ffbaba"/>
    </linearGradient>
  </defs>
  <g id="Group_35" data-name="Group 35" transform="translate(0)">
    <path id="Union_1" data-name="Union 1" d="M148.325,416.659a246.273,246.273,0,0,1,1.64-28.3C63.872,367.269,0,289.6,0,197.006c0-31.989,8.319-62.5,21.7-88.9C47.958,56.263-8.543,25.156,8.749,8.211c8.195-8.032,19.421.035,34.481,8.1,16.715,8.953,38.153,17.907,65.408,4.847C136.958,7.588,166.587,0,197.006,0c95.488,0,175.11,67.941,193.167,158.115q8.625-.619,17.317-.622c143.132,0,259.165,116.032,259.165,259.165S550.622,675.823,407.489,675.823,148.325,559.791,148.325,416.659ZM616,151.172A130.679,130.679,0,0,1,746.679,20.493c20.178,0,39.831,5.034,58.616,14.035,18.079,8.663,32.3,2.724,43.387-3.215,9.989-5.351,17.437-10.7,22.873-5.374,11.47,11.24-26.008,31.874-8.59,66.259A130.553,130.553,0,1,1,616,151.172Z" transform="translate(877.358 675.823) rotate(180)" fill="url(#linear-gradient)"/>
  </g>
</svg>
